<?xml version="1.0" encoding="UTF-8"?>
<svg version="1.1" xmlns="http://www.w3.org/2000/svg" width="1024" height="1024" viewBox="0 0 1024 1024">
  <!-- White background -->
  <rect width="1024" height="1024" fill="#FDFDFD"/>
  
  <!-- Large purple circle (instead of square) -->
  <circle cx="512" cy="512" r="440" fill="#A180E9"/>
  
  <!-- Inner white circle -->
  <path d="M0 0 C0.91476608 -0.00974854 1.82953217 -0.01949707 2.77201843 -0.02954102 C22.98783184 -0.20054536 42.46134798 0.05516621 62.32421875 4.23828125 C63.21753906 4.41488281 64.11085938 4.59148437 65.03125 4.7734375 C113.20140666 14.40746883 161.34429966 38.1966592 195.32421875 74.23828125 C196.56171875 75.47578125 196.56171875 75.47578125 197.82421875 76.73828125 C199.06171875 77.97578125 199.06171875 77.97578125 200.32421875 79.23828125 C201.27167969 80.13353516 201.27167969 80.13353516 202.23828125 81.046875 C227.86022689 105.71818308 248.21598501 141.08406739 257.73632812 175.13818359 C258.29154073 177.12154691 258.87726673 179.0962952 259.46484375 181.0703125 C260.46317206 184.44898331 261.40670696 187.83687492 262.32421875 191.23828125 C262.58976562 192.18574219 262.8553125 193.13320313 263.12890625 194.109375 C268.49423815 214.93460655 268.75788135 236.50968984 268.66479492 257.87133789 C268.66226117 260.64346558 268.6642972 263.41558583 268.66612244 266.18771362 C268.6676781 272.09904692 268.65845068 278.01027912 268.64140892 283.92158699 C268.6167873 292.46780668 268.6091903 301.01397864 268.60544495 309.56022995 C268.59891627 323.43365415 268.57905369 337.30702474 268.55053711 351.18041992 C268.52290285 364.63875057 268.50171544 378.09706654 268.48901367 391.55541992 C268.4882255 392.38819759 268.48743733 393.22097526 268.48662528 394.07898862 C268.48270951 398.25774669 268.47891854 402.43650486 268.47518957 406.6152631 C268.44420556 441.15630769 268.391469 475.69728864 268.32421875 510.23828125 C264.84768201 510.27322715 261.37119144 510.29402338 257.89453125 510.3125 C256.92169189 510.32244995 255.94885254 510.3323999 254.9465332 510.34265137 C245.80879284 510.37895774 237.22828475 509.20396457 228.32421875 507.23828125 C227.53869629 507.0666748 226.75317383 506.89506836 225.94384766 506.71826172 C183.3688738 497.19950133 144.54976037 477.10349134 110.32421875 450.23828125 C109.51597656 449.61050781 108.70773437 448.98273438 107.875 448.3359375 C98.58164081 441.01797833 89.19997062 433.47636309 81.0090332 424.92163086 C79.2934514 423.20754065 77.50639797 421.6422406 75.66015625 420.0703125 C70.39741028 415.49597562 65.56263367 410.52657622 60.6796875 405.5546875 C57.44847356 402.28803062 54.21823362 399.09586562 50.71484375 396.12109375 C44.69059681 390.93585364 39.15817531 385.22079361 33.55029297 379.59472656 C31.56851072 377.6075577 29.58140532 375.62582372 27.59375 373.64453125 C26.32129361 372.37141448 25.04914723 371.09798776 23.77734375 369.82421875 C23.18874573 369.23764496 22.60014771 368.65107117 21.99371338 368.04672241 C18.88507944 364.92041616 16.00783408 361.74831879 13.32421875 358.23828125 C10.08304421 359.63105077 8.25793346 361.1947469 6.02319336 363.90600586 C2.56955165 367.98311574 -1.07639468 371.78412102 -4.859375 375.5546875 C-5.51857437 376.2148436 -6.17777374 376.87499969 -6.85694885 377.55516052 C-8.2397496 378.93863631 -9.62379201 380.32087208 -11.0090332 381.7019043 C-13.10808468 383.79559794 -15.20174065 385.89457999 -17.29492188 387.99414062 C-18.64941911 389.34797696 -20.00422656 390.701503 -21.359375 392.0546875 C-21.97421249 392.67154922 -22.58904999 393.28841095 -23.22251892 393.92396545 C-26.95915618 397.64088797 -30.8102532 401.16812767 -34.81373596 404.59642029 C-38.09034557 407.48557526 -41.11854335 410.62078452 -44.17578125 413.73828125 C-48.55343773 418.15837666 -52.91994085 422.50701364 -57.6796875 426.51953125 C-59.76718269 428.31698307 -61.77547409 430.18892681 -63.78491211 432.07275391 C-79.79867904 447.0265018 -97.85364457 460.07063526 -116.67578125 471.23828125 C-117.74957031 471.91890625 -118.82335937 472.59953125 -119.9296875 473.30078125 C-152.85723287 494.06210006 -194.94818427 510.87368437 -234.34765625 510.3359375 C-235.34845215 510.32888794 -236.34924805 510.32183838 -237.38037109 510.3145752 C-239.81233663 510.29641536 -242.24397406 510.27089346 -244.67578125 510.23828125 C-244.69871683 475.91050392 -244.71631457 441.58272834 -244.72684658 407.25494499 C-244.72809715 403.19364496 -244.72939148 399.13234494 -244.73071289 395.07104492 C-244.7309752 394.2625816 -244.73123751 393.45411828 -244.73150777 392.62115607 C-244.73584802 379.56513949 -244.74372645 366.50912735 -244.75293405 353.4531134 C-244.76231646 340.0363847 -244.76784654 326.61965831 -244.76986974 313.20292646 C-244.77123548 304.93752356 -244.77553425 296.67213323 -244.78369772 288.40673421 C-244.78902187 282.72336284 -244.79057278 277.03999788 -244.78928263 271.35662421 C-244.78864803 268.08750555 -244.79011904 264.81841303 -244.79498672 261.54929733 C-244.85075904 222.13141098 -244.85075904 222.13141098 -241.73828125 208.73828125 C-241.37416544 207.06007669 -241.01087595 205.38169262 -240.6484375 203.703125 C-240.47715332 202.92952637 -240.30586914 202.15592773 -240.12939453 201.35888672 C-239.55761645 198.68587036 -239.11049287 195.99912632 -238.67578125 193.30078125 C-237.77077481 188.19109888 -236.2666273 183.3234382 -234.68359375 178.38671875 C-233.53484741 174.79799956 -232.50027977 171.18291881 -231.484375 167.5546875 C-230.46761059 164.64192763 -229.0578611 161.99553056 -227.67578125 159.23828125 C-226.83946713 157.10161664 -226.02718745 154.95540046 -225.23828125 152.80078125 C-223.8575228 149.14093958 -222.49777556 145.65993591 -220.48828125 142.30078125 C-218.7257211 139.32266238 -217.64477833 136.54902127 -216.67578125 133.23828125 C-216.01578125 133.23828125 -215.35578125 133.23828125 -214.67578125 133.23828125 C-214.42828125 132.41328125 -214.18078125 131.58828125 -213.92578125 130.73828125 C-211.34097903 123.50083503 -207.68369664 117.53951568 -202.98828125 111.48828125 C-201.91780793 110.08736245 -200.84749688 108.68631965 -199.77734375 107.28515625 C-199.25172852 106.60130859 -198.72611328 105.91746094 -198.18457031 105.21289062 C-196.81884592 103.4255154 -195.47225363 101.62639338 -194.13671875 99.81640625 C-193.38648438 98.800625 -192.63625 97.78484375 -191.86328125 96.73828125 C-191.21746094 95.86171875 -190.57164062 94.98515625 -189.90625 94.08203125 C-177.51006029 78.27743211 -162.80464076 64.24154424 -146.50195312 52.55175781 C-144.86204336 51.37225052 -143.24393986 50.16256451 -141.62890625 48.94921875 C-125.46600547 36.85039996 -107.39552335 26.76096507 -88.67578125 19.23828125 C-87.11923828 18.53832031 -87.11923828 18.53832031 -85.53125 17.82421875 C-64.17950087 8.52788094 -40.64960568 4.12145045 -17.67578125 1.23828125 C-16.4436792 1.06393555 -15.21157715 0.88958984 -13.94213867 0.70996094 C-9.29516043 0.13355795 -4.67845711 0.04132568 0 0 Z " fill="#FDFDFD" transform="translate(499.67578125,214.76171875)"/>
  
  <!-- Purple gradient circle -->
  <path d="M0 0 C0.76708282 0.00115814 1.53416565 0.00231628 2.32449341 0.00350952 C14.06414428 0.03851493 25.32984228 0.69846461 36.8125 3.3125 C37.94945312 3.56386719 39.08640625 3.81523437 40.2578125 4.07421875 C43.1322459 4.75500561 45.96952648 5.5118433 48.8125 6.3125 C49.5653125 6.50199219 50.318125 6.69148438 51.09375 6.88671875 C76.372794 13.68262613 102.03681957 27.86777896 120.22192383 46.73242188 C121.79991176 48.29999484 123.444412 49.68307784 125.1875 51.0625 C130.09079066 55.1996515 133.88155361 60.27452486 137.8125 65.3125 C138.54597656 66.2303125 139.27945312 67.148125 140.03515625 68.09375 C165.63822067 100.96682037 176.01683847 139.16472692 175.92602539 180.36010742 C175.92574287 182.16466266 175.92590252 183.96921802 175.9264679 185.77377319 C175.92675333 190.64281144 175.92089772 195.51182475 175.91389394 200.38085723 C175.90761806 205.48041007 175.90705326 210.57996355 175.90586853 215.67951965 C175.90276766 225.32292669 175.89457111 234.96632232 175.88451904 244.60972434 C175.87331918 255.59404942 175.86783771 266.57837507 175.86282361 277.56270444 C175.8523874 300.14597594 175.83481216 322.72923733 175.8125 345.3125 C174.08132695 343.8290615 172.35029987 342.34545351 170.6195488 340.86152267 C169.29274905 339.72417492 167.96525182 338.5876407 166.63735962 337.4515686 C162.05131767 333.48717339 157.71774653 329.33740819 153.4609375 325.0234375 C152.79840973 324.35712311 152.13588196 323.69080872 151.45327759 323.00430298 C149.36220419 320.90114762 147.27443925 318.79475716 145.1875 316.6875 C142.42743084 313.90069586 139.66396848 311.11732042 136.8984375 308.3359375 C136.27641449 307.70561615 135.65439148 307.0752948 135.01351929 306.4258728 C132.2313729 303.62826454 129.45015709 300.96703638 126.36962891 298.49853516 C125.52577637 297.77714355 124.68192383 297.05575195 123.8125 296.3125 C123.8125 295.6525 123.8125 294.9925 123.8125 294.3125 C123.25453798 294.07971627 122.69657597 293.84693254 122.12170601 293.60709476 C119.21370336 291.97680063 117.22000238 289.9623479 114.86520386 287.59898376 C114.38133811 287.1161213 113.89747236 286.63325884 113.39894402 286.13576418 C111.78054099 284.51831296 110.16939111 282.89382638 108.55810547 281.26928711 C107.39865098 280.10763121 106.23874796 278.94642286 105.07843018 277.78562927 C102.58188551 275.28615178 100.08852985 272.78355074 97.5975914 270.27848625 C93.6615859 266.32022766 89.71851636 262.36905745 85.77444458 258.4188385 C79.53994831 252.17296134 73.31014373 245.92242854 67.08236134 239.66985756 C55.92167353 228.46482772 44.75537764 217.26539316 33.58388436 206.07113653 C29.66129046 202.14011783 25.74152296 198.20630815 21.82397819 194.27025783 C19.39113232 191.82679541 16.95627868 189.38534113 14.52091217 186.94439125 C13.38884424 185.80884267 12.25764945 184.67242288 11.12737656 183.53508759 C9.58913726 181.98744608 8.04788259 180.44287204 6.50582886 178.89903259 C5.64269514 178.03237945 4.77956142 177.1657263 3.89027214 176.27281094 C1.96725744 174.26966618 1.96725744 174.26966618 -0.1875 173.3125 C-0.1875 173.9725 -0.1875 174.6325 -0.1875 175.3125 C-1.55181122 176.65680695 -1.55181122 176.65680695 -3.50183105 178.25793457 C-9.00818539 182.94565508 -14.06263749 188.063141 -19.15820312 193.18554688 C-20.23976096 194.26902775 -21.32154955 195.35227832 -22.40354919 196.43531799 C-24.71899881 198.75391014 -27.03289018 201.07404196 -29.3455658 203.395401 C-33.00855939 207.07200555 -36.6754434 210.74471371 -40.34289551 214.41687012 C-48.1274068 222.21244513 -55.90767621 230.01224737 -63.6875 237.8125 C-72.08870409 246.2357646 -80.49064836 254.65828292 -88.8974967 263.07591486 C-92.53707217 266.72044835 -96.17420114 270.36740008 -99.80942535 274.0162735 C-102.07750219 276.29185153 -104.34768659 278.56531822 -106.61842537 280.83823967 C-107.66412776 281.88580135 -108.7089719 282.93422062 -109.75285149 283.98359871 C-114.84278572 289.09947926 -119.95428865 294.13682497 -125.4600296 298.80988312 C-128.69555895 301.62426479 -131.6765483 304.69961188 -134.6875 307.75 C-135.36748047 308.43376709 -136.04746094 309.11753418 -136.74804688 309.82202148 C-138.89700926 311.98307055 -141.04267279 314.14734726 -143.1875 316.3125 C-146.01783837 319.16966017 -148.85162673 322.02333454 -151.6875 324.875 C-152.32107422 325.51687256 -152.95464844 326.15874512 -153.60742188 326.82006836 C-157.40722968 330.64031059 -161.32482664 334.25388342 -165.42041016 337.75585938 C-167.05047214 339.19179129 -168.56024777 340.68252777 -170.0625 342.25 C-172.1875 344.3125 -172.1875 344.3125 -174.1875 344.3125 C-174.23439855 321.20610956 -174.2695758 298.09972706 -174.29112434 274.99329853 C-174.30139944 264.26252455 -174.315387 253.53178029 -174.33837891 242.80102539 C-174.35842891 233.43878014 -174.37124374 224.07655644 -174.37567699 214.71429032 C-174.37826488 209.76553215 -174.38426723 204.81683557 -174.39896011 199.86809731 C-174.54072101 150.18144398 -174.54072101 150.18144398 -169.9375 132.5 C-169.72134033 131.63729492 -169.50518066 130.77458984 -169.2824707 129.88574219 C-167.1793292 121.77908765 -164.47966377 114.00819492 -161.1875 106.3125 C-160.89504395 105.6220459 -160.60258789 104.9315918 -160.30126953 104.22021484 C-155.67547044 93.45770187 -150.05272349 83.79279515 -143.1875 74.3125 C-142.78805176 73.7561084 -142.38860352 73.1997168 -141.97705078 72.62646484 C-133.42819983 60.82057523 -123.61626582 49.41357223 -112.1875 40.3125 C-111.24777344 39.54679687 -110.30804688 38.78109375 -109.33984375 37.9921875 C-78.14359587 12.9867854 -39.9088809 -0.18725923 0 0 Z " fill="#957BED" transform="translate(511.1875,288.6875)"/>
  
  <!-- Inner small white circle -->
  <path d="M0 0 C11.25501934 8.95246576 20.62186703 20.36885299 22.55859375 35.03515625 C23.39813382 47.83100338 22.86710997 59.43642419 16.99609375 71.03515625 C16.64603271 71.72722168 16.29597168 72.41928711 15.93530273 73.13232422 C12.73968506 79.16432661 8.8989587 83.74444924 3.55859375 88.03515625 C2.8728125 88.59460938 2.18703125 89.1540625 1.48046875 89.73046875 C-9.57216452 97.87666882 -23.87547273 101.21622906 -37.44140625 100.03515625 C-54.63406254 97.19527828 -67.46446612 89.60052774 -77.91015625 75.41015625 C-86.17051261 62.59817496 -88.76949364 47.13312621 -85.63671875 32.19921875 C-81.39324832 18.0055418 -73.04084842 5.5962124 -60.04296875 -1.93359375 C-41.1915113 -11.93107379 -18.0602695 -12.63950511 0 0 Z " fill="#FDFDFD" transform="translate(543.44140625,342.96484375)"/>
  
  <!-- Accent path -->
  <path d="M0 0 C2.3977272 3.59659079 2.27489114 6.1573747 2.24050903 10.30815125 C2.24221788 11.0580046 2.24392673 11.80785796 2.24568737 12.58043414 C2.24898906 15.10018721 2.23796748 17.61967565 2.22705078 20.1394043 C2.22648681 21.94277948 2.22680294 23.74615512 2.22793579 25.54953003 C2.22851087 30.45212861 2.21673148 35.35462982 2.20278788 40.25720572 C2.19030634 45.37815597 2.18911205 50.49910831 2.18673706 55.62007141 C2.1805147 65.32042653 2.16409367 75.02073671 2.14403808 84.72107202 C2.12170258 95.76324685 2.11069157 106.80542381 2.10064721 117.8476156 C2.0797281 140.56510201 2.04453745 163.28254849 2 186 C-0.475 183.525 -0.475 183.525 -3 181 C-2.34 181 -1.68 181 -1 181 C-0.67 121.27 -0.34 61.54 0 0 Z " fill="#AB78E2" transform="translate(685,448)"/>
</svg>