<svg width="200" height="200" viewBox="0 0 200 200" xmlns="http://www.w3.org/2000/svg">
  <!-- Center number 8 (vertically adjusted) -->
  <text 
    x="100" 
    y="125" 
    font-family="Arial" 
    font-size="100" 
    font-weight="600" 
    fill="#002868" 
    text-anchor="middle" 
    dominant-baseline="middle">8</text>

  <!-- 8 stars in a circle, same radius 70, each star 20% bigger than the previous -->
<g transform="translate(100,30) scale(1.2) translate(-100,-30)">
  <polygon points="100,30 103,40 114,40 105,47 108,57 100,50 92,57 95,47 86,40 97,40" fill="#002868"/>
</g>
<polygon points="150,50 154,62 166,62 156,70 160,82 150,73 140,82 144,70 134,62 146,62" fill="#002868"/>
<polygon points="170,100 174,112 186,112 176,120 180,132 170,123 160,132 164,120 154,112 166,112" fill="#002868"/>
<polygon points="150,150 154,162 166,162 156,170 160,182 150,173 140,182 144,170 134,162 146,162" fill="#002868"/>
<polygon points="100,170 104,182 116,182 106,190 110,202 100,193 90,202 94,190 84,182 96,182" fill="#002868"/>
<polygon points="50,150 54,162 66,162 56,170 60,182 50,173 40,182 44,170 34,162 46,162" fill="#002868"/>
<polygon points="30,100 34,112 46,112 36,120 40,132 30,123 20,132 24,120 14,112 26,112" fill="#002868"/>
<polygon points="50,50 54,62 66,62 56,70 60,82 50,73 40,82 44,70 34,62 46,62" fill="#002868"/>
</svg>
